# xmcd CD database file generated by Grip 2.94
# 
# Track frame offsets:
#       150
#       17100
#       30942
#       56590
#       83077
#       102320
#       117775
#       145825
#       180635
#       205012
# 
# Disc length: 3053 seconds
# 
# Revision: 3
# Processed by: cddbd v1.4b41PL1 Copyright (c) Steve Scherf et al.
# Submitted via: Grip 2.94
# 
DISCID=780beb0a
DTITLE=Various Artist - All That Jazz: Traditional Jazz, Vo. 5
DYEAR=1900
DGENRE=
TTITLE0=Lady Sings the Blues
TTITLE1=Alright, Okay, You Win
TTITLE2=On the Sunny side of the Street
TTITLE3=Cheek to Cheek
TTITLE4=Corcovado (Quiet Nights of Quiet Stars)
TTITLE5=Viento Del Sur
TTITLE6=Nick@Night
TTITLE7=Look Who's Here
TTITLE8=Natural Wonders
TTITLE9=Let's Face the Music and Dance
EXTD=a sampler CD
EXTT0=Billie Holiday
EXTT1=Count Basie and Joe Williams
EXTT2=Dizzie Gillespie
EXTT3=Ella Fitzgerald
EXTT4=Stan Getz
EXTT5=Claudia Acuna
EXTT6=Nicholas Payton
EXTT7=Russell Malone
EXTT8=Roy Hargrove
EXTT9=Diana Krall
PLAYORDER=
